<?xml version="1.0" standalone="no"?>
<!DOCTYPE svg PUBLIC "-//W3C//DTD SVG 20010904//EN"
 "http://www.w3.org/TR/2001/REC-SVG-20010904/DTD/svg10.dtd">
<svg version="1.0" xmlns="http://www.w3.org/2000/svg"
 width="500.000000pt" height="500.000000pt" viewBox="0 0 500.000000 500.000000"
 preserveAspectRatio="xMidYMid meet">

<g transform="translate(0.000000,500.000000) scale(0.100000,-0.100000)"
fill="#000000" stroke="none">
<path d="M2543 4068 c-6 -7 -13 -22 -17 -32 -6 -17 -14 -18 -80 -13 -69 6 -75
5 -120 -23 -51 -33 -76 -37 -106 -18 -25 16 -45 5 -68 -37 -9 -16 -21 -33 -27
-37 -5 -4 -51 -8 -101 -8 -106 0 -152 18 -249 100 -38 32 -68 50 -85 50 -17
-1 -48 -22 -95 -67 l-70 -65 -6 -120 c-6 -111 -9 -124 -42 -191 -33 -66 -38
-85 -52 -222 -8 -82 -19 -181 -24 -218 l-9 -68 -90 -87 c-117 -114 -142 -164
-142 -280 0 -119 -13 -153 -77 -208 -29 -25 -67 -66 -84 -90 -36 -53 -69 -60
-69 -15 0 60 -93 86 -126 35 -15 -22 -23 -25 -67 -23 -46 3 -53 0 -89 -34 -37
-36 -39 -41 -36 -90 l3 -52 -33 -3 c-37 -4 -41 -19 -15 -63 20 -34 35 -36 103
-9 45 18 74 20 268 20 251 0 280 -7 295 -70 29 -117 83 -237 124 -275 27 -24
33 -25 145 -25 105 0 120 2 138 20 11 11 20 28 20 38 0 10 5 23 11 29 6 6 14
26 18 44 5 25 13 35 36 41 44 12 95 1 95 -20 0 -34 22 -42 107 -42 l83 0 0
-182 c0 -179 0 -182 24 -207 21 -21 27 -43 36 -121 7 -52 14 -98 17 -102 6
-11 97 -10 171 2 68 11 92 5 123 -34 13 -15 28 -20 59 -20 23 1 47 7 53 13 17
17 37 13 37 -8 0 -11 3 -27 6 -36 10 -26 103 -65 170 -72 60 -5 62 -5 84 25
l23 31 23 -32 c13 -18 27 -40 30 -50 6 -17 23 -23 74 -29 18 -2 36 -20 66 -66
69 -105 89 -122 150 -122 76 0 84 12 84 119 0 100 -9 117 -59 106 -51 -11
-133 46 -148 103 -3 13 -1 56 5 95 20 134 24 223 12 264 -10 34 -10 45 5 74
25 50 55 79 81 79 13 0 26 4 29 10 3 5 38 10 76 10 77 0 124 17 134 50 15 49
-41 154 -125 234 -27 26 -54 54 -58 63 -11 19 -32 9 -32 -15 0 -9 24 -39 53
-67 63 -60 102 -112 123 -161 20 -48 11 -54 -82 -54 -46 0 -77 -5 -90 -15 -10
-8 -28 -15 -40 -15 -21 0 -58 -35 -86 -80 -24 -39 -30 -84 -19 -127 8 -28 8
-69 0 -139 -6 -54 -13 -122 -16 -151 -7 -68 0 -95 39 -138 40 -46 77 -65 128
-65 l40 0 0 -65 c0 -61 -2 -65 -25 -71 -59 -15 -98 14 -166 123 -34 56 -43 63
-78 69 -34 5 -45 14 -73 55 -38 56 -72 65 -88 24 -8 -22 -15 -25 -62 -25 -72
0 -158 39 -158 72 0 38 -15 51 -46 45 -97 -20 -92 -21 -131 13 -36 32 -38 32
-107 26 -39 -3 -92 -9 -117 -12 -42 -6 -47 -4 -52 17 -4 13 -7 44 -7 69 0 60
-16 113 -40 135 -19 17 -20 31 -20 200 0 127 -4 185 -12 193 -7 7 -44 12 -95
12 -73 0 -83 2 -83 18 0 31 -22 42 -83 42 -75 0 -94 -11 -103 -58 -4 -20 -13
-46 -20 -57 -8 -11 -14 -27 -14 -36 0 -14 -16 -17 -107 -21 -60 -3 -118 -2
-130 3 -12 4 -33 28 -48 52 -27 47 -84 201 -85 228 0 29 -54 69 -111 80 -56
12 -441 -1 -484 -15 -19 -7 -20 -3 -20 59 1 59 4 69 25 85 16 12 34 16 56 13
45 -7 82 3 89 27 14 44 92 30 81 -14 -17 -67 64 -72 111 -8 14 20 57 66 94
102 78 76 89 103 89 230 1 119 18 154 135 265 l94 90 20 155 c11 85 23 188 27
229 5 58 15 90 43 144 34 65 36 76 40 181 l5 111 62 58 c69 65 79 66 129 19
92 -86 177 -122 284 -122 91 0 103 5 135 56 28 44 29 45 53 29 30 -20 61 -14
112 21 33 22 42 24 108 18 71 -7 72 -6 103 25 36 36 68 39 126 15 30 -13 57
-15 116 -11 l78 6 24 -47 c32 -64 57 -83 111 -90 35 -3 50 0 66 14 17 15 24
16 39 6 26 -16 45 -15 60 3 22 26 39 16 71 -40 33 -59 68 -92 106 -101 23 -6
24 -9 21 -96 -2 -80 -1 -91 17 -104 36 -25 45 -35 45 -51 0 -19 -75 -93 -95
-93 -22 0 -75 -50 -75 -71 0 -19 15 -26 24 -11 3 5 34 26 69 46 105 62 138
148 76 200 l-31 26 4 91 3 91 -38 13 c-50 17 -70 36 -106 101 -34 59 -63 75
-91 49 -13 -12 -27 -15 -54 -9 -28 5 -41 2 -56 -11 -14 -13 -28 -16 -53 -11
-39 7 -66 34 -96 93 -11 23 -24 44 -29 47 -5 3 -40 0 -78 -5 -61 -10 -75 -8
-122 10 -59 24 -115 27 -129 9z"/>
<path d="M1581 3169 c-12 -11 -26 -32 -31 -44 -5 -13 -9 -191 -8 -394 l0 -371
99 0 99 0 2 163 3 162 198 5 c194 5 199 6 218 29 12 15 19 39 19 66 0 36 -5
48 -31 69 -30 26 -31 26 -220 26 l-189 0 0 60 0 60 276 0 276 0 29 29 c21 22
29 39 29 66 0 27 -8 44 -29 66 l-29 29 -344 0 c-336 0 -345 -1 -367 -21z"/>
<path d="M2371 3177 c61 -46 45 -150 -27 -177 l-24 -10 0 -315 0 -315 100 0
100 0 2 318 3 317 189 3 c211 3 226 -1 226 -63 0 -50 -13 -55 -132 -55 -159 0
-198 -22 -198 -108 0 -33 6 -45 32 -67 32 -27 32 -27 172 -23 121 3 147 7 181
25 148 79 187 261 85 401 -58 80 -67 82 -417 82 -244 -1 -305 -3 -292 -13z"/>
<path d="M3571 2649 c-1 -28 6 -44 28 -68 16 -17 36 -31 45 -31 19 0 66 43 66
61 0 6 -9 0 -21 -15 -40 -51 -98 -24 -110 52 l-6 37 -2 -36z"/>
<path d="M3630 2660 c0 -11 -7 -20 -15 -20 -8 0 -15 -4 -15 -10 0 -5 6 -10 14
-10 7 0 17 -10 21 -22 l8 -23 4 23 c3 14 12 22 24 22 10 0 19 5 19 10 0 6 -7
10 -16 10 -9 0 -18 9 -21 20 -3 11 -9 20 -14 20 -5 0 -9 -9 -9 -20z"/>
<path d="M3712 2655 c0 -16 2 -22 5 -12 2 9 2 23 0 30 -3 6 -5 -1 -5 -18z"/>
<path d="M3487 2603 c-9 -9 -9 -41 1 -46 4 -3 7 8 7 24 0 16 0 29 -1 29 0 0
-4 -3 -7 -7z"/>
<path d="M3500 2580 c0 -5 7 -10 15 -10 8 0 15 5 15 10 0 6 -7 10 -15 10 -8 0
-15 -4 -15 -10z"/>
<path d="M3517 2553 c-16 -15 -6 -71 16 -89 22 -19 22 -19 5 2 -21 24 -24 80
-5 87 6 3 7 6 1 6 -6 1 -14 -2 -17 -6z"/>
<path d="M3618 2468 c-10 -10 -14 -18 -9 -18 10 0 36 29 30 34 -2 1 -12 -6
-21 -16z"/>
<path d="M1530 2255 c0 -19 5 -35 10 -35 6 0 10 6 10 14 0 8 10 17 23 19 l22
4 -22 2 c-13 0 -23 5 -23 10 0 5 10 12 23 14 16 3 13 5 -10 6 -31 1 -33 -1
-33 -34z"/>
<path d="M1609 2274 c-26 -31 25 -70 56 -44 20 16 19 46 -1 54 -25 10 -41 7
-55 -10z m49 -17 c2 -12 -3 -17 -17 -17 -12 0 -21 6 -21 13 0 31 32 34 38 4z"/>
<path d="M1697 2283 c-11 -10 -8 -51 3 -58 6 -3 10 4 10 16 l0 22 23 -21 c32
-30 37 -28 37 13 0 19 -4 35 -10 35 -5 0 -10 -7 -10 -15 0 -8 -4 -15 -9 -15
-5 0 -11 7 -15 15 -6 16 -18 19 -29 8z"/>
<path d="M1786 2268 c-10 -40 -7 -48 23 -48 59 0 67 61 9 68 -19 2 -27 -2 -32
-20z m49 -8 c0 -8 -8 -16 -17 -18 -13 -2 -18 3 -18 18 0 15 5 20 18 18 9 -2
17 -10 17 -18z"/>
<path d="M1877 2283 c-15 -15 -5 -32 21 -36 l27 -4 -27 -2 c-16 0 -28 -6 -28
-12 0 -6 14 -9 33 -7 37 4 45 31 10 36 -13 2 -23 7 -23 12 0 5 10 11 23 13 20
4 20 4 -4 6 -14 0 -29 -2 -32 -6z"/>
<path d="M2010 2281 c31 -9 40 -41 11 -41 -11 0 -22 8 -24 18 -3 10 -5 6 -6
-11 -1 -25 2 -28 25 -25 58 7 59 69 2 67 -30 -1 -31 -2 -8 -8z"/>
<path d="M2080 2255 c0 -32 2 -35 30 -35 34 0 42 20 8 21 -22 0 -22 1 -3 9 18
8 18 9 -4 9 -28 1 -19 16 14 24 13 3 9 5 -12 6 -31 1 -33 -1 -33 -34z"/>
<path d="M2193 2255 c-2 -19 2 -35 7 -35 6 0 10 4 10 9 0 5 10 11 23 13 36 5
29 42 -8 46 -28 3 -30 0 -32 -33z m47 15 c0 -5 -7 -10 -15 -10 -8 0 -15 5 -15
10 0 6 7 10 15 10 8 0 15 -4 15 -10z"/>
<path d="M2280 2253 c0 -28 3 -34 10 -23 8 12 13 13 30 3 26 -17 31 -16 24 2
-4 8 -3 15 1 15 3 0 13 -7 21 -15 33 -33 85 -2 63 38 -11 19 -54 23 -65 6 -4
-8 -9 -8 -17 0 -6 6 -24 11 -39 11 -26 0 -28 -3 -28 -37z m45 17 c3 -5 -3 -10
-14 -10 -12 0 -21 5 -21 10 0 6 6 10 14 10 8 0 18 -4 21 -10z m89 -21 c-7 -13
-31 -11 -40 2 -9 16 18 30 33 17 7 -6 10 -14 7 -19z"/>
<path d="M2450 2255 c0 -19 5 -35 10 -35 6 0 10 5 10 11 0 8 4 8 14 0 11 -9
15 -9 19 1 4 10 6 10 6 1 2 -30 21 -10 21 22 0 39 -6 43 -26 18 -13 -17 -15
-17 -28 0 -20 25 -26 21 -26 -18z"/>
<path d="M2557 2284 c-4 -4 -7 -18 -7 -30 0 -31 44 -44 68 -20 13 13 14 20 6
34 -11 18 -55 28 -67 16z m53 -30 c0 -8 -9 -14 -20 -14 -19 0 -27 19 -14 33
10 9 34 -4 34 -19z"/>
<path d="M2648 2283 c6 -2 12 -18 12 -34 0 -16 5 -29 10 -29 6 0 10 13 10 29
0 20 6 31 18 34 9 3 -1 5 -23 5 -22 0 -34 -2 -27 -5z"/>
<path d="M2720 2255 c0 -19 5 -35 10 -35 6 0 10 16 10 35 0 19 -4 35 -10 35
-5 0 -10 -16 -10 -35z"/>
<path d="M2763 2283 c-17 -6 -16 -38 2 -53 31 -26 82 13 56 44 -13 16 -34 19
-58 9z m45 -26 c2 -12 -3 -17 -17 -17 -12 0 -21 6 -21 13 0 31 32 34 38 4z"/>
<path d="M2840 2255 c0 -19 5 -35 10 -35 6 0 10 7 10 15 0 8 4 15 9 15 5 0 11
-7 15 -15 10 -27 26 -15 26 20 0 35 -20 51 -20 18 -1 -17 -1 -17 -14 0 -21 27
-36 20 -36 -18z"/>
<path d="M2966 2275 c-14 -38 -7 -55 23 -55 36 0 59 25 44 48 -14 23 -59 28
-67 7z m52 -18 c2 -12 -3 -17 -17 -17 -15 0 -21 6 -21 21 0 25 33 22 38 -4z"/>
<path d="M3050 2255 c0 -32 2 -35 30 -35 35 0 41 19 8 21 -22 1 -22 1 2 9 24
8 24 8 3 9 -32 1 -29 19 5 24 22 3 20 4 -10 6 -37 1 -38 0 -38 -34z"/>
<path d="M3170 2256 c0 -35 1 -36 39 -36 30 0 44 6 57 23 10 13 14 15 11 5 -3
-10 1 -19 10 -22 24 -9 27 -1 12 33 -16 36 -29 35 -46 -1 -10 -20 -18 -24 -38
-20 -16 3 -25 11 -25 23 0 10 -4 21 -10 24 -6 4 -10 -8 -10 -29z"/>
<path d="M3367 2283 c-16 -15 -5 -33 21 -34 20 -1 22 -2 7 -6 -38 -9 -42 -25
-5 -21 43 4 58 38 16 38 -35 0 -33 18 2 23 26 4 26 4 -4 6 -17 0 -34 -2 -37
-6z"/>
<path d="M3455 2260 c-8 -16 -15 -30 -15 -32 0 -2 17 -3 39 -3 l39 0 -16 32
c-19 41 -27 41 -47 3z m35 -4 c0 -3 -4 -8 -10 -11 -5 -3 -10 -1 -10 4 0 6 5
11 10 11 6 0 10 -2 10 -4z"/>
<path d="M3530 2255 c0 -19 5 -35 10 -35 6 0 10 10 10 22 l0 22 16 -22 c22
-32 34 -27 34 13 0 19 -4 35 -10 35 -5 0 -10 -7 -10 -17 0 -15 -1 -15 -18 0
-27 24 -32 21 -32 -18z"/>
<path d="M3623 2283 c11 -3 17 -14 17 -34 0 -18 4 -28 10 -24 6 3 10 17 10 30
0 13 6 26 13 28 6 3 -6 5 -28 5 -22 0 -32 -2 -22 -5z"/>
<path d="M3700 2255 c0 -32 2 -35 30 -35 35 0 41 19 8 21 -22 1 -22 1 2 9 24
8 24 8 3 9 -13 1 -23 5 -23 10 0 5 10 12 23 14 16 3 13 5 -10 6 -31 1 -33 -1
-33 -34z"/>
</g>
</svg>
